<mxfile host="app.diagrams.net" modified="2022-05-19T09:29:33.811Z" agent="5.0 (X11; Linux x86_64) AppleWebKit/537.36 (KHTML, like Gecko) Chrome/100.0.4896.127 Safari/537.36" etag="3OtN8-dQkFmQrlRK0s6-" version="18.0.7" type="github">
  <diagram id="0N8eA_yL3qV1ItSrtyGo" name="Page-1">
    <mxGraphModel dx="1008" dy="919" grid="1" gridSize="10" guides="1" tooltips="1" connect="1" arrows="1" fold="1" page="1" pageScale="1" pageWidth="850" pageHeight="1100" math="0" shadow="0">
      <root>
        <mxCell id="0" />
        <mxCell id="1" parent="0" />
        <mxCell id="xkfi9JevkNU3P3AcEOtR-18" style="edgeStyle=orthogonalEdgeStyle;rounded=0;orthogonalLoop=1;jettySize=auto;html=1;entryX=0;entryY=0.5;entryDx=0;entryDy=0;entryPerimeter=0;" edge="1" parent="1" source="xkfi9JevkNU3P3AcEOtR-1" target="xkfi9JevkNU3P3AcEOtR-17">
          <mxGeometry relative="1" as="geometry" />
        </mxCell>
        <mxCell id="xkfi9JevkNU3P3AcEOtR-1" value="Input data" style="rounded=1;whiteSpace=wrap;html=1;fillColor=#ffe6cc;strokeColor=#d79b00;" vertex="1" parent="1">
          <mxGeometry x="220" y="280" width="100" height="40" as="geometry" />
        </mxCell>
        <mxCell id="xkfi9JevkNU3P3AcEOtR-15" style="edgeStyle=orthogonalEdgeStyle;rounded=0;orthogonalLoop=1;jettySize=auto;html=1;entryX=0.5;entryY=0;entryDx=0;entryDy=0;" edge="1" parent="1" source="xkfi9JevkNU3P3AcEOtR-2" target="xkfi9JevkNU3P3AcEOtR-13">
          <mxGeometry relative="1" as="geometry" />
        </mxCell>
        <mxCell id="xkfi9JevkNU3P3AcEOtR-20" style="edgeStyle=orthogonalEdgeStyle;rounded=0;orthogonalLoop=1;jettySize=auto;html=1;entryX=0;entryY=0;entryDx=120;entryDy=50;entryPerimeter=0;" edge="1" parent="1" source="xkfi9JevkNU3P3AcEOtR-2" target="xkfi9JevkNU3P3AcEOtR-17">
          <mxGeometry relative="1" as="geometry" />
        </mxCell>
        <mxCell id="xkfi9JevkNU3P3AcEOtR-2" value="style" style="rounded=1;whiteSpace=wrap;html=1;fillColor=#d5e8d4;strokeColor=#82b366;" vertex="1" parent="1">
          <mxGeometry x="560" y="280" width="100" height="40" as="geometry" />
        </mxCell>
        <mxCell id="xkfi9JevkNU3P3AcEOtR-19" style="edgeStyle=orthogonalEdgeStyle;rounded=0;orthogonalLoop=1;jettySize=auto;html=1;entryX=0.496;entryY=-0.056;entryDx=0;entryDy=0;entryPerimeter=0;" edge="1" parent="1" source="xkfi9JevkNU3P3AcEOtR-3" target="xkfi9JevkNU3P3AcEOtR-17">
          <mxGeometry relative="1" as="geometry" />
        </mxCell>
        <mxCell id="xkfi9JevkNU3P3AcEOtR-3" value="phase data" style="rounded=1;whiteSpace=wrap;html=1;fillColor=#e1d5e7;strokeColor=#9673a6;" vertex="1" parent="1">
          <mxGeometry x="390" y="280" width="100" height="40" as="geometry" />
        </mxCell>
        <mxCell id="xkfi9JevkNU3P3AcEOtR-9" style="edgeStyle=orthogonalEdgeStyle;rounded=0;orthogonalLoop=1;jettySize=auto;html=1;exitX=0.75;exitY=0;exitDx=0;exitDy=0;entryX=0;entryY=0.5;entryDx=0;entryDy=0;" edge="1" parent="1" source="xkfi9JevkNU3P3AcEOtR-7" target="xkfi9JevkNU3P3AcEOtR-1">
          <mxGeometry relative="1" as="geometry" />
        </mxCell>
        <mxCell id="xkfi9JevkNU3P3AcEOtR-7" value="Entity" style="swimlane;childLayout=stackLayout;horizontal=1;startSize=30;horizontalStack=0;rounded=1;fontSize=14;fontStyle=0;strokeWidth=2;resizeParent=0;resizeLast=1;shadow=0;dashed=0;align=center;fillColor=#ffe6cc;strokeColor=#d79b00;" vertex="1" parent="1">
          <mxGeometry x="100" y="350" width="120" height="90" as="geometry" />
        </mxCell>
        <mxCell id="xkfi9JevkNU3P3AcEOtR-8" value="+ Shape: [5, 324]&#xa;+ dtype: float&#xa;+ 输入数据&#xa;" style="align=left;strokeColor=none;fillColor=none;spacingLeft=4;fontSize=12;verticalAlign=top;resizable=0;rotatable=0;part=1;" vertex="1" parent="xkfi9JevkNU3P3AcEOtR-7">
          <mxGeometry y="30" width="120" height="60" as="geometry" />
        </mxCell>
        <mxCell id="xkfi9JevkNU3P3AcEOtR-12" style="edgeStyle=orthogonalEdgeStyle;rounded=0;orthogonalLoop=1;jettySize=auto;html=1;entryX=0.5;entryY=0;entryDx=0;entryDy=0;" edge="1" parent="1" source="xkfi9JevkNU3P3AcEOtR-10" target="xkfi9JevkNU3P3AcEOtR-3">
          <mxGeometry relative="1" as="geometry" />
        </mxCell>
        <mxCell id="xkfi9JevkNU3P3AcEOtR-10" value="Entity" style="swimlane;childLayout=stackLayout;horizontal=1;startSize=30;horizontalStack=0;rounded=1;fontSize=14;fontStyle=0;strokeWidth=2;resizeParent=0;resizeLast=1;shadow=0;dashed=0;align=center;fillColor=#ffe6cc;strokeColor=#d79b00;" vertex="1" parent="1">
          <mxGeometry x="460" y="130" width="120" height="120" as="geometry" />
        </mxCell>
        <mxCell id="xkfi9JevkNU3P3AcEOtR-11" value="+ Shape: [5, 8]&#xa;+ dtype: float&#xa;+ phase数据输入&#xa;+ SetPhase()&#xa;" style="align=left;strokeColor=none;fillColor=none;spacingLeft=4;fontSize=12;verticalAlign=top;resizable=0;rotatable=0;part=1;" vertex="1" parent="xkfi9JevkNU3P3AcEOtR-10">
          <mxGeometry y="30" width="120" height="90" as="geometry" />
        </mxCell>
        <mxCell id="xkfi9JevkNU3P3AcEOtR-13" value="Entity" style="swimlane;childLayout=stackLayout;horizontal=1;startSize=30;horizontalStack=0;rounded=1;fontSize=14;fontStyle=0;strokeWidth=2;resizeParent=0;resizeLast=1;shadow=0;dashed=0;align=center;fillColor=#ffe6cc;strokeColor=#d79b00;" vertex="1" parent="1">
          <mxGeometry x="680" y="320" width="140" height="100" as="geometry" />
        </mxCell>
        <mxCell id="xkfi9JevkNU3P3AcEOtR-14" value="+ Shape: [1]&#xa;+ dtype: float&#xa;+ 目前单个float控制style&#xa;" style="align=left;strokeColor=none;fillColor=none;spacingLeft=4;fontSize=12;verticalAlign=top;resizable=0;rotatable=0;part=1;" vertex="1" parent="xkfi9JevkNU3P3AcEOtR-13">
          <mxGeometry y="30" width="140" height="70" as="geometry" />
        </mxCell>
        <mxCell id="xkfi9JevkNU3P3AcEOtR-24" style="edgeStyle=orthogonalEdgeStyle;rounded=0;orthogonalLoop=1;jettySize=auto;html=1;entryX=0;entryY=0;entryDx=30;entryDy=70;entryPerimeter=0;" edge="1" parent="1" source="xkfi9JevkNU3P3AcEOtR-17" target="xkfi9JevkNU3P3AcEOtR-23">
          <mxGeometry relative="1" as="geometry" />
        </mxCell>
        <mxCell id="xkfi9JevkNU3P3AcEOtR-17" value="Gating Network" style="shape=cube;whiteSpace=wrap;html=1;boundedLbl=1;backgroundOutline=1;darkOpacity=0.05;darkOpacity2=0.1;fillColor=#fff2cc;strokeColor=#d6b656;" vertex="1" parent="1">
          <mxGeometry x="380" y="450" width="120" height="80" as="geometry" />
        </mxCell>
        <mxCell id="xkfi9JevkNU3P3AcEOtR-32" style="edgeStyle=orthogonalEdgeStyle;rounded=0;orthogonalLoop=1;jettySize=auto;html=1;entryX=0;entryY=0;entryDx=50;entryDy=0;entryPerimeter=0;" edge="1" parent="1" source="xkfi9JevkNU3P3AcEOtR-21" target="xkfi9JevkNU3P3AcEOtR-22">
          <mxGeometry relative="1" as="geometry" />
        </mxCell>
        <mxCell id="xkfi9JevkNU3P3AcEOtR-21" value="FiLM Module" style="shape=cube;whiteSpace=wrap;html=1;boundedLbl=1;backgroundOutline=1;darkOpacity=0.05;darkOpacity2=0.1;fillColor=#f8cecc;strokeColor=#b85450;" vertex="1" parent="1">
          <mxGeometry x="380" y="570" width="120" height="80" as="geometry" />
        </mxCell>
        <mxCell id="xkfi9JevkNU3P3AcEOtR-34" style="edgeStyle=orthogonalEdgeStyle;rounded=0;orthogonalLoop=1;jettySize=auto;html=1;" edge="1" parent="1" source="xkfi9JevkNU3P3AcEOtR-22" target="xkfi9JevkNU3P3AcEOtR-33">
          <mxGeometry relative="1" as="geometry" />
        </mxCell>
        <mxCell id="xkfi9JevkNU3P3AcEOtR-22" value="LPN (local phase network)" style="shape=cube;whiteSpace=wrap;html=1;boundedLbl=1;backgroundOutline=1;darkOpacity=0.05;darkOpacity2=0.1;fillColor=#f8cecc;strokeColor=#b85450;" vertex="1" parent="1">
          <mxGeometry x="390" y="690" width="120" height="80" as="geometry" />
        </mxCell>
        <mxCell id="xkfi9JevkNU3P3AcEOtR-28" style="edgeStyle=orthogonalEdgeStyle;rounded=0;orthogonalLoop=1;jettySize=auto;html=1;entryX=0;entryY=0;entryDx=120;entryDy=50;entryPerimeter=0;" edge="1" parent="1" source="xkfi9JevkNU3P3AcEOtR-23" target="xkfi9JevkNU3P3AcEOtR-21">
          <mxGeometry relative="1" as="geometry" />
        </mxCell>
        <mxCell id="xkfi9JevkNU3P3AcEOtR-23" value="" style="shape=cube;whiteSpace=wrap;html=1;boundedLbl=1;backgroundOutline=1;darkOpacity=0.05;darkOpacity2=0.1;fillColor=#e1d5e7;strokeColor=#9673a6;" vertex="1" parent="1">
          <mxGeometry x="580" y="530" width="30" height="120" as="geometry" />
        </mxCell>
        <mxCell id="xkfi9JevkNU3P3AcEOtR-25" value="Blending Weights" style="text;html=1;strokeColor=none;fillColor=none;align=center;verticalAlign=middle;whiteSpace=wrap;rounded=0;fontStyle=1" vertex="1" parent="1">
          <mxGeometry x="520" y="530" width="60" height="30" as="geometry" />
        </mxCell>
        <mxCell id="xkfi9JevkNU3P3AcEOtR-31" style="edgeStyle=orthogonalEdgeStyle;rounded=0;orthogonalLoop=1;jettySize=auto;html=1;" edge="1" parent="1" source="xkfi9JevkNU3P3AcEOtR-29" target="xkfi9JevkNU3P3AcEOtR-21">
          <mxGeometry relative="1" as="geometry" />
        </mxCell>
        <mxCell id="xkfi9JevkNU3P3AcEOtR-29" value="" style="shape=cube;whiteSpace=wrap;html=1;boundedLbl=1;backgroundOutline=1;darkOpacity=0.05;darkOpacity2=0.1;fillColor=#cce5ff;strokeColor=#36393d;" vertex="1" parent="1">
          <mxGeometry x="210" y="475" width="40" height="150" as="geometry" />
        </mxCell>
        <mxCell id="xkfi9JevkNU3P3AcEOtR-30" value="Style Learned weights&lt;br&gt;&lt;br&gt;Walk&lt;br&gt;Runing&lt;br&gt;Streched&lt;br&gt;Lean&lt;br&gt;..." style="text;html=1;strokeColor=none;fillColor=none;align=center;verticalAlign=middle;whiteSpace=wrap;rounded=0;fontStyle=1" vertex="1" parent="1">
          <mxGeometry x="260" y="510" width="60" height="30" as="geometry" />
        </mxCell>
        <mxCell id="xkfi9JevkNU3P3AcEOtR-33" value="Output Data" style="rounded=1;whiteSpace=wrap;html=1;fillColor=#ffe6cc;strokeColor=#d79b00;" vertex="1" parent="1">
          <mxGeometry x="400" y="810" width="100" height="40" as="geometry" />
        </mxCell>
        <mxCell id="xkfi9JevkNU3P3AcEOtR-37" style="edgeStyle=orthogonalEdgeStyle;rounded=0;orthogonalLoop=1;jettySize=auto;html=1;entryX=1;entryY=0.5;entryDx=0;entryDy=0;" edge="1" parent="1" source="xkfi9JevkNU3P3AcEOtR-35" target="xkfi9JevkNU3P3AcEOtR-33">
          <mxGeometry relative="1" as="geometry" />
        </mxCell>
        <mxCell id="xkfi9JevkNU3P3AcEOtR-35" value="Entity" style="swimlane;childLayout=stackLayout;horizontal=1;startSize=30;horizontalStack=0;rounded=1;fontSize=14;fontStyle=0;strokeWidth=2;resizeParent=0;resizeLast=1;shadow=0;dashed=0;align=center;fillColor=#ffe6cc;strokeColor=#d79b00;" vertex="1" parent="1">
          <mxGeometry x="570" y="780" width="140" height="100" as="geometry" />
        </mxCell>
        <mxCell id="xkfi9JevkNU3P3AcEOtR-36" value="+ Shape: [5, 319]&#xa;+ dtype: float&#xa;+ 输出，物理定义待确认&#xa;" style="align=left;strokeColor=none;fillColor=none;spacingLeft=4;fontSize=12;verticalAlign=top;resizable=0;rotatable=0;part=1;" vertex="1" parent="xkfi9JevkNU3P3AcEOtR-35">
          <mxGeometry y="30" width="140" height="70" as="geometry" />
        </mxCell>
      </root>
    </mxGraphModel>
  </diagram>
</mxfile>
